<svg t="1769771404728" class="icon" viewBox="0 0 1024 1024" version="1.1" xmlns="http://www.w3.org/2000/svg" p-id="5029" width="200" height="200"><path d="M768 426.666667H256V213.333333h512m-256 512a85.333333 85.333333 0 0 1-85.333333-85.333333c0-47.36 37.973333-85.333333 85.333333-85.333333a85.333333 85.333333 0 0 1 85.333333 85.333333 85.333333 85.333333 0 0 1-85.333333 85.333333m-341.333333-64A149.333333 149.333333 0 0 0 320 810.666667L256 874.666667v21.333333h512v-21.333333L704 810.666667a149.333333 149.333333 0 0 0 149.333333-149.333334V213.333333c0-149.333333-152.746667-170.666667-341.333333-170.666666s-341.333333 21.333333-341.333333 170.666666v448z" fill="currentColor" p-id="5030"></path></svg>